# xmcd
#
# Track frame offsets: 
#        150
#        16712
#        33765
#        60615
#        83840
#        96017
#        114490
#        128075
#        142375
#        160515
#
# Disc length: 2218 seconds
#
# Revision: 2
# Processed by: cddbd v1.5.2PL0 Copyright (c) Steve Scherf et al.
# Submitted via: ExactAudioCopy v0.95b4
#
DISCID=7408a80a
DTITLE=November - En Ny Tid Är Här...
DYEAR=1970
DGENRE=Rock
TTITLE0=Mount Everest
TTITLE1=En Annan Värld
TTITLE2=Lek Att Du Är Barn Igen
TTITLE3=Sekunder (Förvandlas Till År)
TTITLE4=En Enkel Sång Om Dej
TTITLE5=Varje Gång Jag Ser Dej Känns Det Lika Skönt
TTITLE6=Gröna Blad
TTITLE7=Åttonde
TTITLE8=Ta Ett Steg I Sagans Land
TTITLE9=Balett Blues
EXTD=
EXTT0=
EXTT1=
EXTT2=
EXTT3=
EXTT4=
EXTT5=
EXTT6=
EXTT7=
EXTT8=
EXTT9=
PLAYORDER=
